<?xml version="1.0" encoding="utf-8"?>
<!-- Generator: Adobe Illustrator 16.0.0, SVG Export Plug-In . SVG Version: 6.00 Build 0)  -->
<!DOCTYPE svg PUBLIC "-//W3C//DTD SVG 1.1//EN" "http://www.w3.org/Graphics/SVG/1.1/DTD/svg11.dtd">
<svg version="1.1" id="Layer_1" xmlns="http://www.w3.org/2000/svg" xmlns:xlink="http://www.w3.org/1999/xlink" x="0px" y="0px"
	 width="612px" height="792px" viewBox="0 0 612 792" enable-background="new 0 0 612 792" xml:space="preserve">
<rect x="-1" y="-1" stroke="#FFFFFF" stroke-miterlimit="10" width="170.954" height="57.311"/>
<path stroke="#FFFFFF" stroke-width="3" d="M160.759,40.026c0,6.433-8.637,11.648-19.293,11.648H25.314
	c-10.656,0-19.295-5.215-19.295-11.648V14.388c0-6.433,8.639-11.648,19.295-11.648h116.151c10.656,0,19.293,5.215,19.293,11.648
	V40.026z"/>
<path fill="none" d="M169.954,41.024c0,7.065-10.032,12.792-22.406,12.792H27.406C15.032,53.816,5,48.089,5,41.024V21.286
	C5,14.221,15.032,8.494,27.406,8.494h120.142c12.374,0,22.406,5.727,22.406,12.792V41.024z"/>
<text transform="matrix(1 0 0 1 14.5742 31.5938)" fill="#F9F9FA" stroke="#000000" font-family="'FuturaBk-Bold'" font-size="28">Compose</text>
</svg>
