<?xml version="1.0" encoding="utf-8"?>
<!-- Generator: Adobe Illustrator 16.0.0, SVG Export Plug-In . SVG Version: 6.00 Build 0)  -->
<!DOCTYPE svg PUBLIC "-//W3C//DTD SVG 1.1//EN" "http://www.w3.org/Graphics/SVG/1.1/DTD/svg11.dtd">
<svg version="1.1" id="Layer_1" xmlns="http://www.w3.org/2000/svg" xmlns:xlink="http://www.w3.org/1999/xlink" x="0px" y="0px"
	 width="100px" height="100px" viewBox="0 0 100 100" enable-background="new 0 0 100 100" xml:space="preserve">
<rect width="104.5" height="104.5"/>
<path fill="#FFFFFF" d="M35.505,62.304c0.863-0.592,2.044-1.4,2.415-1.474c0.511-0.039,1.354,0.342,2.247,0.744
	c1.539,0.694,3.451,1.558,5.938,1.506c5.055-0.108,7.548-4.233,8.188-5.493c0.62-1.21,0.887-3.585,1.004-5.439h22.544
	c0.399,0.58,1.216,1.711,1.502,1.711c0.386,0,6.986,0,6.986,0s1.172-1.262,1.172-3.859c0-2.598-1.172-3.858-1.172-3.858
	s-6.601,0-6.986,0c-0.286,0-1.103,1.13-1.502,1.71H55.296c-0.116-1.841-0.382-4.227-1.002-5.44
	c-0.644-1.261-3.136-5.385-8.189-5.492c-2.485-0.052-4.399,0.812-5.938,1.506c-0.893,0.402-1.736,0.782-2.223,0.747
	c-0.396-0.075-1.576-0.885-2.438-1.476c-2.596-1.779-6.517-4.467-11.178-4.467c-4.417-0.001-11.828,2.178-11.828,16.77
	s7.411,16.771,11.828,16.771C28.99,66.771,32.911,64.082,35.505,62.304z M43.731,49.999c0,1.752-1.424,3.177-3.176,3.177
	c-1.754,0-3.179-1.425-3.179-3.177s1.425-3.177,3.179-3.177C42.308,46.822,43.731,48.247,43.731,49.999z M15.887,49.999
	c0-8.882,2.841-13.385,8.442-13.385c3.611,0,6.878,2.239,9.264,3.873c1.664,1.142,2.866,1.966,4.071,2.057
	c1.374,0.104,2.599-0.449,3.896-1.034c1.354-0.611,2.754-1.243,4.474-1.206c3.175,0.067,4.818,2.808,5.246,3.646
	c0.277,0.545,0.5,2.186,0.621,3.9h-6.979c-0.795-1.61-2.448-2.722-4.364-2.722c-2.689,0-4.871,2.181-4.871,4.87
	c0,2.69,2.182,4.87,4.871,4.87c1.916,0,3.569-1.11,4.364-2.723h6.977c-0.123,1.734-0.35,3.373-0.617,3.899
	c-0.43,0.839-2.072,3.58-5.247,3.647c-1.721,0.037-3.118-0.596-4.473-1.207c-1.297-0.584-2.521-1.137-3.895-1.033
	c-1.207,0.091-2.41,0.915-4.075,2.057c-2.384,1.635-5.649,3.873-9.262,3.873C18.728,63.384,15.887,58.881,15.887,49.999z"/>
<rect x="24.524" y="43.373" fill="#FFFFFF" width="3.387" height="13.252"/>
<path fill="#FFFFFF" d="M54.293,57.587"/>
</svg>
