<?xml version="1.0" encoding="utf-8"?>
<!-- Generator: Adobe Illustrator 16.0.0, SVG Export Plug-In . SVG Version: 6.00 Build 0)  -->
<!DOCTYPE svg PUBLIC "-//W3C//DTD SVG 1.1//EN" "http://www.w3.org/Graphics/SVG/1.1/DTD/svg11.dtd">
<svg version="1.1" id="Layer_1" xmlns="http://www.w3.org/2000/svg" xmlns:xlink="http://www.w3.org/1999/xlink" x="0px" y="0px"
	 width="612px" height="792px" viewBox="0 0 612 792" enable-background="new 0 0 612 792" xml:space="preserve">
<rect x="-1" y="-1" stroke="#FFFFFF" stroke-miterlimit="10" width="106.586" height="57.311"/>
<path stroke="#FFFFFF" stroke-width="3" d="M99.241,40.414c0,6.627-5.373,12-12,12H15c-6.627,0-12-5.373-12-12V14
	C3,7.373,8.373,2,15,2h72.241c6.627,0,12,5.373,12,12V40.414z"/>
<path fill="none" d="M104.333,40.414c0,6.627-5.373,12-12,12H27.989c-6.627,0-12-5.373-12-12V21.896c0-6.627,5.373-12,12-12h64.345
	c6.627,0,12,5.373,12,12V40.414z"/>
<text transform="matrix(1 0 0 1 20.9146 32.9966)" fill="#F9F9FA" stroke="#000000" font-family="'FuturaBk-Bold'" font-size="28">Play</text>
</svg>
