<?xml version="1.0" encoding="utf-8"?>
<!-- Generator: Adobe Illustrator 16.0.0, SVG Export Plug-In . SVG Version: 6.00 Build 0)  -->
<!DOCTYPE svg PUBLIC "-//W3C//DTD SVG 1.1 Tiny//EN" "http://www.w3.org/Graphics/SVG/1.1/DTD/svg11-tiny.dtd">
<svg version="1.1" baseProfile="tiny" id="Layer_1" xmlns="http://www.w3.org/2000/svg" xmlns:xlink="http://www.w3.org/1999/xlink"
	 x="0px" y="0px" width="84.5px" height="82px" viewBox="0 0 84.5 82" xml:space="preserve">
<path fill="none" stroke="#FFFFFF" stroke-miterlimit="10" d="M70.636,41.885l-0.147-2.924c2.266-0.968,4.498-2.117,6.699-3.445
	c-0.182-1.377-0.625-2.703-0.951-4.051c-2.589-0.352-5.211-0.467-7.707-0.396c-0.333-0.918-0.82-1.771-1.227-2.658
	c-0.439-0.87-0.994-1.68-1.486-2.521c1.582-1.934,2.994-3.973,4.328-6.176c-0.795-1.139-1.809-2.096-2.723-3.135
	c-2.451,0.895-4.826,2.011-7.004,3.232c-0.727-0.652-1.547-1.189-2.318-1.787c-0.799-0.559-1.658-1.029-2.484-1.547
	c0.5-2.436,0.812-4.908,0.969-7.477c-1.235-0.637-2.582-1.02-3.877-1.516c-1.758,1.93-3.342,4.026-4.7,6.121
	c-0.943-0.254-1.925-0.326-2.884-0.496c-0.965-0.156-1.947-0.129-2.919-0.201c-0.691-2.452-1.562-4.725-2.613-7.076
	c-1.385,0.027-2.756,0.242-4.127,0.463c-0.671,2.478-1.099,5.087-1.326,7.597c-0.957,0.208-1.871,0.554-2.785,0.896
	c-0.932,0.301-1.799,0.752-2.68,1.174c-1.745-1.83-3.609-3.499-5.617-5.051c-1.208,0.688-2.34,1.482-3.434,2.336
	c0.567,2.512,1.395,5.003,2.367,7.338c-0.749,0.631-1.397,1.36-2.049,2.087c-0.687,0.697-1.241,1.505-1.83,2.282
	c-2.396-0.814-4.811-1.424-7.316-1.875c-0.755,1.166-1.379,2.404-1.962,3.666c1.661,1.961,3.559,3.791,5.5,5.404
	c-0.372,0.906-0.606,1.854-0.841,2.802c-0.281,0.938-0.408,1.907-0.552,2.874c-2.492,0.396-4.949,0.98-7.35,1.75
	c-0.093,1.381-0.135,2.762-0.024,4.145c2.42,0.959,4.853,1.705,7.374,2.229c0.144,0.966,0.271,1.936,0.552,2.873
	c0.235,0.947,0.47,1.896,0.841,2.802c-1.967,1.485-3.961,3.182-5.707,4.97c0.607,1.248,1.161,2.526,1.919,3.689
	c2.612-0.291,5.086-0.746,7.565-1.464c0.588,0.778,1.143,1.585,1.83,2.282c0.651,0.727,1.301,1.457,2.049,2.088
	c-1.056,2.232-2.029,4.65-2.751,7.047c1.11,0.83,2.197,1.693,3.406,2.377c2.176-1.461,4.164-3.02,6.028-4.803
	c0.88,0.423,1.748,0.875,2.68,1.175c0.915,0.342,1.828,0.688,2.785,0.896c0.106,2.462,0.372,5.064,0.852,7.521
	c1.371,0.191,2.737,0.49,4.122,0.513c1.241-2.341,2.272-4.601,3.092-7.05c0.974-0.072,1.954-0.047,2.919-0.201
	c0.959-0.172,1.94-0.242,2.884-0.496c1.237,2.139,2.655,4.235,4.245,6.272c1.308-0.458,2.63-0.901,3.897-1.462
	c0.019-2.648-0.149-5.191-0.534-7.683c0.826-0.517,1.686-0.989,2.484-1.546c0.771-0.599,1.592-1.136,2.318-1.787
	c2.09,1.315,4.319,2.512,6.672,3.576c0.941-1.012,1.908-2.01,2.765-3.096c-1.216-2.355-2.532-4.522-4.038-6.561
	c0.492-0.842,1.047-1.65,1.486-2.521c0.406-0.888,0.894-1.74,1.227-2.657c2.463,0.194,4.994,0.218,7.572,0.064
	c0.367-1.336,0.746-2.678,1.011-4.037c-2.167-1.518-4.378-2.826-6.624-3.921L70.636,41.885z M41.25,65.5
	c-13.117,0-23.75-10.633-23.75-23.75S28.133,18,41.25,18C54.367,18,65,28.633,65,41.75S54.367,65.5,41.25,65.5z"/>
</svg>
