<?xml version="1.0" encoding="utf-8"?>
<!-- Generator: Adobe Illustrator 16.0.0, SVG Export Plug-In . SVG Version: 6.00 Build 0)  -->
<!DOCTYPE svg PUBLIC "-//W3C//DTD SVG 1.1//EN" "http://www.w3.org/Graphics/SVG/1.1/DTD/svg11.dtd">
<svg version="1.1" id="Layer_1" xmlns="http://www.w3.org/2000/svg" xmlns:xlink="http://www.w3.org/1999/xlink" x="0px" y="0px"
	 width="1401.064px" height="206px" viewBox="0 50.492 1401.064 206" enable-background="new 0 50.492 1401.064 206"
	 xml:space="preserve">
<rect x="1.371" y="49.714" fill="#6CB4F4" width="1400" height="207.623"/>
<g>
	<path fill="#FFFFFF" d="M331.221,179.385h-15.283v-21.777h15.283c1.823,5.924,5.257,8.887,10.303,8.887
		c3.646,0,5.469-1.465,5.469-4.395c0-1.53-0.635-2.8-1.904-3.809c-1.367-1.107-4.248-2.637-8.643-4.59
		c-5.534-2.507-9.603-4.671-12.207-6.495c-2.441-1.66-4.525-3.955-6.25-6.885c-1.726-2.897-2.588-6.104-2.588-9.619
		c0-6.315,2.051-11.247,6.152-14.795c4.069-3.548,9.082-5.322,15.039-5.322s11.002,1.693,15.137,5.078v-4.199h15.381V130.8h-15.186
		c-1.855-5.338-5.144-8.008-9.863-8.008c-3.32,0-4.98,1.416-4.98,4.248c0,1.367,0.472,2.393,1.416,3.076
		c0.911,0.716,3.857,2.295,8.838,4.736c6.673,3.32,11.133,5.746,13.379,7.275c1.139,0.749,2.303,1.799,3.491,3.149
		c1.188,1.351,2.173,2.743,2.954,4.175c1.79,3.19,2.686,6.641,2.686,10.352c0,5.696-2.116,10.514-6.348,14.453
		c-4.232,4.004-9.57,6.006-16.016,6.006c-5.99,0-11.41-1.774-16.26-5.322V179.385z"/>
	<path fill="#FFFFFF" d="M378.193,155.459c0-6.966,2.93-12.842,8.789-17.627s13.77-7.178,23.73-7.178
		c10.026,0,18.18,2.312,24.463,6.934c6.282,4.623,9.424,10.645,9.424,18.067c0,7.161-2.995,13.135-8.984,17.92
		c-5.99,4.785-13.9,7.178-23.73,7.178c-10.612,0-18.88-2.393-24.805-7.178C381.155,168.821,378.193,162.783,378.193,155.459z
		 M403.047,155.556c0,7.552,2.702,11.328,8.105,11.328c5.729,0,8.594-3.809,8.594-11.426c0-3.483-0.7-6.185-2.1-8.106
		c-1.433-1.92-3.451-2.881-6.055-2.881c-2.572,0-4.639,0.944-6.201,2.832C403.828,149.192,403.047,151.943,403.047,155.556z"/>
	<path fill="#FFFFFF" d="M456.904,146.913h-5.713v-14.893h30.273v22.559c0,3.809,0.358,6.363,1.074,7.666
		c0.684,1.334,2.148,2.002,4.395,2.002c2.734,0,5.273-0.732,7.617-2.197v-15.137h-6.494v-14.893h31.055v32.471h5.713v14.893h-30.273
		v-6.006c-6.478,4.59-13.103,6.885-19.873,6.885c-4.851,0-9.017-1.547-12.5-4.639c-3.516-3.093-5.273-8.92-5.273-17.48V146.913z"/>
	<path fill="#FFFFFF" d="M569.014,179.385h-37.5v-14.893h6.104v-17.579h-6.104v-14.893h30.664v6.006
		c6.021-4.59,12.483-6.885,19.385-6.885c6.055,0,10.611,1.677,13.672,5.029c3.027,3.353,4.541,8.74,4.541,16.162v12.159h5.615
		v14.893h-30.176V158.34c0-4.59-0.391-7.618-1.172-9.083c-0.847-1.432-2.458-2.148-4.834-2.148c-2.182,0-4.525,0.83-7.031,2.49
		v14.893h6.836V179.385z"/>
	<path fill="#FFFFFF" d="M684.932,164.492v14.893h-30.713v-3.174c-4.558,2.701-9.831,4.053-15.82,4.053
		c-6.674,0-12.582-2.035-17.725-6.104c-5.144-4.069-7.715-9.896-7.715-17.48c0-8.171,2.376-14.486,7.129-18.946
		c4.752-4.395,11.116-6.592,19.092-6.592c5.859,0,10.872,1.302,15.039,3.906v-8.691h-6.055v-14.893h30.615v53.028H684.932z
		 M654.365,155.508c0-2.962-0.684-5.437-2.051-7.422c-1.367-1.953-3.402-2.93-6.104-2.93c-5.566,0-8.35,3.597-8.35,10.792
		c0,2.962,0.684,5.403,2.051,7.324c1.334,1.953,3.369,2.93,6.104,2.93c2.474,0,4.492-0.863,6.055-2.588
		C653.6,161.887,654.365,159.185,654.365,155.508z"/>
	<path fill="#FFFFFF" d="M708.271,179.385h-15.283v-21.777h15.283c1.822,5.924,5.257,8.887,10.303,8.887
		c3.646,0,5.469-1.465,5.469-4.395c0-1.53-0.635-2.8-1.904-3.809c-1.367-1.107-4.248-2.637-8.643-4.59
		c-5.534-2.507-9.604-4.671-12.207-6.495c-2.441-1.66-4.525-3.955-6.25-6.885c-1.726-2.897-2.588-6.104-2.588-9.619
		c0-6.315,2.051-11.247,6.152-14.795c4.068-3.548,9.082-5.322,15.039-5.322s11.002,1.693,15.137,5.078v-4.199h15.381V130.8h-15.186
		c-1.855-5.338-5.144-8.008-9.863-8.008c-3.32,0-4.98,1.416-4.98,4.248c0,1.367,0.472,2.393,1.416,3.076
		c0.911,0.716,3.857,2.295,8.838,4.736c6.673,3.32,11.133,5.746,13.379,7.275c1.139,0.749,2.303,1.799,3.491,3.149
		c1.188,1.351,2.173,2.743,2.954,4.175c1.79,3.19,2.686,6.641,2.686,10.352c0,5.696-2.116,10.514-6.348,14.453
		c-4.232,4.004-9.57,6.006-16.016,6.006c-5.99,0-11.41-1.774-16.26-5.322V179.385z"/>
	<path fill="#FFFFFF" d="M807.588,179.385h-38.135v-16.26h5.859v-35.401H767.5v12.354h-12.744v-28.613h67.334v28.613h-12.744
		v-12.354h-7.764v35.401h6.006V179.385z"/>
	<path fill="#FFFFFF" d="M848.994,179.385H822.09v-16.26h5.176l12.744-35.401h-5.469v-16.26h48.828v16.26H877.9l12.988,35.401h4.98
		v16.26H860.42v-14.893h5.957l-2.588-8.545h-17.383l-2.979,8.545h5.566V179.385z M855.391,128.7l-6.396,18.799h12.158L855.391,128.7
		z"/>
	<path fill="#FFFFFF" d="M927.607,179.385h-26.318v-16.26h5.225v-35.401h-5.371v-16.26h40.967l10.01,26.221l10.254-26.221h40.723
		v16.26h-5.322v35.401h5.469v16.26h-35.449v-16.26h5.42v-37.94l-20.508,54.2h-10.156l-20.312-53.711v37.452h5.371V179.385z"/>
	<path fill="#FFFFFF" d="M1051.436,179.385h-39.697v-16.26h6.592v-35.401h-6.592v-16.26h41.65c9.57,0,16.568,0.928,20.996,2.783
		c4.427,1.888,7.682,4.46,9.766,7.715c2.083,3.255,3.125,6.82,3.125,10.693c0,4.785-1.237,8.757-3.711,11.914
		c-2.475,3.19-5.746,5.501-9.814,6.934c-4.004,1.4-10.189,2.1-18.555,2.1H1044.6v9.521h6.836V179.385z M1044.6,126.357v12.744h5.127
		c3.58,0,6.185-0.423,7.812-1.27c1.562-0.846,2.344-2.49,2.344-4.932c0-1.595-0.424-2.946-1.27-4.053
		c-0.814-1.074-1.904-1.758-3.271-2.051c-1.303-0.293-3.516-0.439-6.641-0.439H1044.6z"/>
</g>
<g>
	<g>
		<path fill-rule="evenodd" clip-rule="evenodd" fill="#FFFFFF" d="M234.564,213.726c-2.718,0.459-5.221,1.189-7.742,1.259
			c-18.984,0.524-32.912-8.235-42.061-24.341c-10.85-19.101-7.211-37.443,4.335-55.004c6.436-9.789,14.812-17.874,22.873-26.231
			c1.418-1.471,1.749-2.781,1.234-4.662c-2.764-10.11-4.199-20.441-3.446-30.885c0.817-11.34,2.95-22.444,10.494-31.588
			c1.61-1.952,3.716-3.57,5.81-5.032c2.941-2.054,4.263-1.75,6.484,1.173c5.255,6.916,8.43,14.77,9.878,23.271
			c3.088,18.122-0.243,35.118-9.821,50.754c-2.567,4.191-6.188,7.727-9.15,11.694c-0.766,1.025-1.392,2.638-1.186,3.825
			c0.994,5.737,2.339,11.412,3.455,17.129c0.314,1.613,1.043,2.019,2.636,1.955c18.342-0.723,30.922,13.854,32.094,30.954
			c0.649,9.474-1.499,17.993-7.941,24.895c-3.026,3.241-7.153,5.548-11.033,7.854c-1.67,0.993-2.273,1.814-1.892,3.601
			c1.694,7.914,3.699,15.781,4.951,23.766c2.315,14.767-2.679,26.038-18.01,29.673c-9.491,2.251-18.404,0.229-25.392-7.166
			c-6.844-7.243-5.87-19.438,1.833-25.081c7.668-5.619,18.26-1.172,19.785,8.308c1.329,8.261-2.404,13.444-10.778,14.983
			c-0.555,0.103-1.091,0.304-1.895,0.531c3.576,4.591,8.348,5.396,13.245,4.509c9.499-1.722,16.763-7.433,16.927-19.243
			c0.118-8.479-2.172-16.41-4.044-24.479C235.722,218.058,235.146,215.99,234.564,213.726z M229.443,186.63
			c-1.47-7.396-2.886-14.805-4.364-22.403c-6.511,2.541-11.312,6.516-13.022,12.961c-2.648,9.977,2.391,16.558,10.952,21.354
			c-0.957,0.485-1.711,0.836-2.322,0.667c-10.929-3.006-17.962-13.245-17.248-23.47c0.804-11.495,6.323-20.195,16.647-25.687
			c0.69-0.368,1.553-1.487,1.447-2.105c-1.044-6.107-2.276-12.183-3.567-18.852c-2.157,1.896-3.746,3.229-5.266,4.638
			c-8.566,7.94-16.603,16.359-21.189,27.32c-5.843,13.965-5.234,27.204,5.46,38.923c9.302,10.192,25.506,13.456,36.928,8.649
			 M217.562,104.206c1.217-0.995,2.188-1.676,3.025-2.492c5.9-5.751,10.211-12.581,13.678-20.013
			c2.646-5.674,4.021-11.548,3.484-17.825c-0.252-2.949-0.751-5.78-3.833-7.166c-3.278-1.474-5.98-0.022-8.475,1.945
			c-0.842,0.664-1.549,1.549-2.165,2.439c-4.43,6.409-6.376,13.733-7.68,21.271C214.343,89.625,214.841,96.745,217.562,104.206z
			 M238.181,207.385c9.251-2.67,15.928-15.578,11.947-28.512c-2.763-8.973-13.073-16.449-20.79-14.778
			C232.284,178.513,235.229,192.932,238.181,207.385z"/>
	</g>
</g>
</svg>
