<?xml version="1.0" encoding="utf-8"?>
<!-- Generator: Adobe Illustrator 16.0.0, SVG Export Plug-In . SVG Version: 6.00 Build 0)  -->
<!DOCTYPE svg PUBLIC "-//W3C//DTD SVG 1.1//EN" "http://www.w3.org/Graphics/SVG/1.1/DTD/svg11.dtd">
<svg version="1.1" id="Layer_1" xmlns="http://www.w3.org/2000/svg" xmlns:xlink="http://www.w3.org/1999/xlink" x="0px" y="0px"
	 width="1401.064px" height="206px" viewBox="0 0 1401.064 206" enable-background="new 0 0 1401.064 206" xml:space="preserve">
<rect x="1.371" y="49.714" fill="#6CB4F4" width="1400" height="207.623"/>
<g>
	<path fill="#FFFFFF" d="M331.221,179.385h-15.283v-21.777h15.283c1.823,5.925,5.257,8.888,10.303,8.888
		c3.646,0,5.469-1.465,5.469-4.396c0-1.529-0.635-2.8-1.904-3.809c-1.367-1.107-4.248-2.637-8.643-4.59
		c-5.534-2.508-9.603-4.672-12.207-6.495c-2.441-1.66-4.525-3.955-6.25-6.886c-1.726-2.896-2.588-6.104-2.588-9.618
		c0-6.315,2.051-11.247,6.152-14.795c4.069-3.548,9.082-5.322,15.039-5.322s11.002,1.692,15.137,5.078v-4.199h15.381V130.8h-15.186
		c-1.855-5.338-5.144-8.008-9.863-8.008c-3.32,0-4.98,1.416-4.98,4.248c0,1.367,0.472,2.394,1.416,3.076
		c0.911,0.716,3.857,2.295,8.838,4.735c6.673,3.32,11.133,5.746,13.379,7.275c1.139,0.749,2.303,1.799,3.491,3.148
		c1.188,1.352,2.173,2.744,2.954,4.176c1.79,3.189,2.686,6.641,2.686,10.352c0,5.696-2.116,10.514-6.348,14.453
		c-4.232,4.004-9.57,6.006-16.016,6.006c-5.99,0-11.41-1.773-16.26-5.322V179.385z"/>
	<path fill="#FFFFFF" d="M378.193,155.459c0-6.966,2.93-12.842,8.789-17.627s13.77-7.178,23.73-7.178
		c10.026,0,18.18,2.312,24.463,6.934c6.282,4.623,9.424,10.645,9.424,18.067c0,7.161-2.995,13.135-8.983,17.92
		c-5.99,4.784-13.9,7.178-23.73,7.178c-10.611,0-18.88-2.394-24.805-7.178C381.155,168.82,378.193,162.783,378.193,155.459z
		 M403.047,155.557c0,7.551,2.702,11.327,8.105,11.327c5.729,0,8.594-3.809,8.594-11.426c0-3.483-0.7-6.185-2.1-8.106
		c-1.434-1.92-3.451-2.881-6.056-2.881c-2.571,0-4.639,0.944-6.201,2.832C403.828,149.191,403.047,151.943,403.047,155.557z"/>
	<path fill="#FFFFFF" d="M456.904,146.913h-5.713V132.02h30.272v22.56c0,3.81,0.358,6.362,1.074,7.666
		c0.684,1.334,2.147,2.002,4.395,2.002c2.734,0,5.273-0.731,7.617-2.197v-15.137h-6.494V132.02h31.056v32.472h5.713v14.893h-30.273
		v-6.006c-6.478,4.59-13.103,6.886-19.873,6.886c-4.851,0-9.017-1.548-12.5-4.64c-3.516-3.093-5.272-8.92-5.272-17.479
		L456.904,146.913L456.904,146.913z"/>
	<path fill="#FFFFFF" d="M569.014,179.385h-37.5v-14.893h6.104v-17.579h-6.104V132.02h30.664v6.006
		c6.021-4.59,12.483-6.885,19.385-6.885c6.056,0,10.611,1.678,13.673,5.029c3.026,3.354,4.541,8.74,4.541,16.162v12.159h5.614
		v14.893h-30.176V158.34c0-4.59-0.391-7.617-1.172-9.083c-0.847-1.432-2.458-2.147-4.834-2.147c-2.182,0-4.525,0.83-7.031,2.49
		v14.893h6.836V179.385z"/>
	<path fill="#FFFFFF" d="M684.932,164.492v14.893h-30.713v-3.174c-4.558,2.701-9.831,4.053-15.819,4.053
		c-6.675,0-12.582-2.035-17.726-6.104c-5.144-4.069-7.715-9.896-7.715-17.48c0-8.171,2.376-14.486,7.129-18.945
		c4.752-4.396,11.116-6.592,19.092-6.592c5.859,0,10.872,1.301,15.039,3.905v-8.69h-6.055v-14.894h30.615v53.028H684.932z
		 M654.365,155.508c0-2.962-0.685-5.438-2.051-7.422c-1.367-1.953-3.402-2.93-6.104-2.93c-5.566,0-8.35,3.597-8.35,10.792
		c0,2.962,0.684,5.403,2.051,7.323c1.334,1.953,3.369,2.931,6.104,2.931c2.475,0,4.492-0.863,6.056-2.588
		C653.6,161.887,654.365,159.186,654.365,155.508z"/>
	<g>
		<path fill="none" d="M1055.342,126.795c-1.303-0.293-3.516-0.439-6.641-0.439h-4.102v0.002v12.744h5.127
			c3.58,0,6.186-0.424,7.812-1.271c1.562-0.847,2.344-2.49,2.344-4.933c0-1.595-0.424-2.945-1.27-4.053
			C1057.799,127.771,1056.709,127.088,1055.342,126.795z"/>
		<polygon fill="none" points="848.995,147.499 861.153,147.499 855.391,128.7 		"/>
		<path fill="#FFFFFF" stroke="#020202" stroke-width="3" stroke-miterlimit="10" d="M741.255,145.275
			c-1.188-1.35-2.352-2.399-3.491-3.148c-2.246-1.529-6.706-3.955-13.379-7.275c-4.98-2.44-7.927-4.02-8.838-4.735
			c-0.943-0.683-1.416-1.709-1.416-3.076c0-2.832,1.66-4.248,4.98-4.248c4.719,0,8.008,2.67,9.862,8.008h15.187v-19.336h-15.381
			v4.199c-4.136-3.386-9.181-5.078-15.138-5.078s-10.971,1.774-15.039,5.322c-4.101,3.548-6.151,8.479-6.151,14.795
			c0,3.515,0.861,6.722,2.588,9.618c1.725,2.931,3.809,5.226,6.25,6.886c2.603,1.823,6.673,3.987,12.207,6.495
			c4.395,1.953,7.275,3.482,8.643,4.59c1.27,1.009,1.904,2.279,1.904,3.809c0,2.931-1.823,4.396-5.469,4.396
			c-5.046,0-8.481-2.963-10.303-8.888h-15.283v21.777h15.283v-4.445c4.85,3.549,10.27,5.322,16.26,5.322
			c6.445,0,11.784-2.002,16.016-6.006c4.232-3.939,6.349-8.757,6.349-14.453c0-3.711-0.896-7.162-2.687-10.352
			C743.428,148.02,742.443,146.627,741.255,145.275z"/>
		<polygon fill="#FFFFFF" stroke="#020202" stroke-width="3" stroke-miterlimit="10" points="822.09,140.078 822.09,111.465 
			754.756,111.465 754.756,140.078 767.5,140.078 767.5,127.725 775.312,127.725 775.312,163.125 769.453,163.125 769.453,179.385 
			807.588,179.385 807.588,163.125 801.582,163.125 801.582,127.725 809.346,127.725 809.346,140.078 		"/>
		<path fill="#FFFFFF" stroke="#020202" stroke-width="3" stroke-miterlimit="10" d="M877.9,127.725h5.469v-16.261h-48.828v16.261
			h5.469l-12.744,35.4h-5.176v16.26h26.903v-14.893h-5.566l2.979-8.545h17.383l2.588,8.545h-5.957v14.893h35.448v-16.26h-4.98
			L877.9,127.725z M848.995,147.499l6.396-18.799l5.763,18.799H848.995z"/>
		<polygon fill="#FFFFFF" stroke="#020202" stroke-width="3" stroke-miterlimit="10" points="997.775,127.725 1003.097,127.725 
			1003.097,111.464 962.374,111.464 952.12,137.686 942.11,111.464 901.143,111.464 901.143,127.725 906.514,127.725 
			906.514,163.125 901.289,163.125 901.289,179.385 927.607,179.385 927.61,179.385 927.61,163.126 922.239,163.126 
			922.239,125.674 942.551,179.385 952.707,179.385 973.215,125.186 973.215,163.125 967.795,163.125 967.795,179.385 
			1003.244,179.385 1003.244,163.125 997.775,163.125 		"/>
		<path fill="#FFFFFF" stroke="#020202" stroke-width="3" stroke-miterlimit="10" d="M1084.151,121.962
			c-2.084-3.255-5.339-5.827-9.767-7.715c-4.428-1.854-11.426-2.783-20.996-2.783h-41.649v16.261h6.592v35.4h-6.592v16.26h39.696
			v-16.261h-6.836v-9.521h10.597c8.366,0,14.551-0.701,18.555-2.101c4.068-1.433,7.339-3.744,9.813-6.935
			c2.475-3.156,3.712-7.129,3.712-11.914C1087.276,128.782,1086.234,125.217,1084.151,121.962z M1057.539,137.831
			c-1.627,0.847-4.232,1.271-7.812,1.271h-5.127v-12.744v-0.002h4.102c3.125,0,5.338,0.146,6.641,0.439
			c1.367,0.293,2.457,0.977,3.271,2.051c0.846,1.107,1.27,2.458,1.27,4.053C1059.883,135.341,1059.101,136.984,1057.539,137.831z"/>
	</g>
</g>
<g>
	<g>
		<path fill="#FFFFFF" d="M234.564,213.727c-2.718,0.459-5.221,1.188-7.742,1.258c-18.984,0.524-32.912-8.234-42.061-24.34
			c-10.85-19.102-7.211-37.443,4.335-55.004c6.436-9.789,14.812-17.875,22.873-26.231c1.418-1.472,1.749-2.781,1.234-4.662
			c-2.764-10.11-4.199-20.441-3.446-30.885c0.817-11.34,2.95-22.444,10.494-31.588c1.61-1.952,3.716-3.57,5.81-5.032
			c2.941-2.054,4.263-1.75,6.484,1.173c5.255,6.916,8.43,14.77,9.878,23.271c3.088,18.122-0.243,35.118-9.821,50.753
			c-2.567,4.191-6.188,7.728-9.15,11.694c-0.766,1.025-1.392,2.638-1.186,3.825c0.994,5.736,2.339,11.412,3.455,17.129
			c0.314,1.613,1.043,2.02,2.636,1.955c18.342-0.723,30.922,13.854,32.094,30.954c0.649,9.474-1.499,17.993-7.941,24.896
			c-3.026,3.24-7.153,5.547-11.033,7.854c-1.67,0.993-2.273,1.814-1.892,3.602c1.694,7.913,3.699,15.78,4.951,23.766
			c2.315,14.767-2.679,26.037-18.01,29.673c-9.491,2.251-18.404,0.229-25.392-7.166c-6.844-7.243-5.87-19.438,1.833-25.081
			c7.668-5.619,18.26-1.172,19.785,8.309c1.329,8.26-2.404,13.443-10.778,14.982c-0.555,0.104-1.091,0.304-1.895,0.531
			c3.576,4.591,8.348,5.396,13.245,4.509c9.499-1.722,16.763-7.433,16.927-19.243c0.118-8.479-2.172-16.41-4.044-24.479
			C235.722,218.059,235.146,215.99,234.564,213.727z M229.443,186.63c-1.47-7.396-2.886-14.805-4.364-22.403
			c-6.511,2.541-11.312,6.517-13.022,12.961c-2.648,9.978,2.391,16.559,10.952,21.354c-0.957,0.485-1.711,0.836-2.322,0.667
			c-10.929-3.006-17.962-13.245-17.248-23.47c0.804-11.495,6.323-20.195,16.647-25.688c0.69-0.368,1.553-1.487,1.447-2.104
			c-1.044-6.107-2.276-12.184-3.567-18.852c-2.157,1.896-3.746,3.229-5.266,4.637c-8.566,7.94-16.603,16.359-21.189,27.32
			c-5.843,13.965-5.234,27.204,5.46,38.924c9.302,10.191,25.506,13.455,36.928,8.648 M217.562,104.206
			c1.217-0.995,2.188-1.676,3.025-2.492c5.9-5.751,10.211-12.581,13.678-20.013c2.646-5.674,4.021-11.548,3.484-17.825
			c-0.252-2.949-0.751-5.78-3.833-7.166c-3.278-1.474-5.98-0.022-8.475,1.945c-0.842,0.664-1.549,1.549-2.165,2.438
			c-4.43,6.409-6.376,13.733-7.68,21.271C214.343,89.625,214.841,96.745,217.562,104.206z M238.181,207.385
			c9.251-2.67,15.928-15.578,11.947-28.512c-2.763-8.973-13.073-16.449-20.79-14.778
			C232.284,178.514,235.229,192.932,238.181,207.385z"/>
	</g>
</g>
</svg>
