<?xml version="1.0" encoding="utf-8"?>
<!-- Generator: Adobe Illustrator 16.0.0, SVG Export Plug-In . SVG Version: 6.00 Build 0)  -->
<!DOCTYPE svg PUBLIC "-//W3C//DTD SVG 1.1//EN" "http://www.w3.org/Graphics/SVG/1.1/DTD/svg11.dtd">
<svg version="1.1" id="Layer_1" xmlns:svg="http://www.w3.org/2000/svg"
	 xmlns="http://www.w3.org/2000/svg" xmlns:xlink="http://www.w3.org/1999/xlink" x="0px" y="0px" width="463.568px"
	 height="303.85px" viewBox="0 0 463.568 303.85" enable-background="new 0 0 463.568 303.85" xml:space="preserve">
<rect x="0.018" y="0" stroke="#FFFDFE" stroke-width="0.036" stroke-miterlimit="10" width="463.531" height="303.848"/>
<g id="g5">
	<path id="path7" fill="#FFFDFE" d="M46.454,298.953c2.088,4.283,7.272,6.12,11.556,4.031c4.32-2.088,6.12-7.271,4.032-11.592
		c-2.088-4.284-7.236-6.12-11.556-4.032C46.166,289.448,44.366,294.633,46.454,298.953L46.454,298.953z"/>
	<path id="path9" fill="#FFFDFE" stroke="#000000" stroke-width="0.036" stroke-miterlimit="10" d="M110.678,99.225l-6.696-0.469
		l0,0c-1.008,3.024-2.772,5.364-5.832,7.164c-2.988,1.692-4.824,1.765-12.168,3.564c-7.596,1.656-22.104,3.563-32.4,6.983
		c-10.368,3.385-20.844,7.309-28.944,13.572C16.43,136.269,9.374,143.973,5.27,153.98c-4.068,9.973-5.004,25.416-5.184,35.641
		c-0.396,10.115,0.972,17.531,3.132,24.731c2.088,7.092,5.112,12.672,9.216,17.315l0,0c-1.296,2.412-1.44,4.896-0.288,7.452
		c1.116,2.483,3.384,5.04,6.948,7.668l0,0c1.836,6.407,6.336,13.176,13.5,20.592c7.236,7.345,18.792,18,29.376,23.364
		c10.332,5.256,21.78,8.279,32.688,8.243c10.944-0.252,22.68-4.319,32.292-9.145c9.432-4.896,17.496-13.752,24.192-19.476
		c6.408-5.688,10.044-11.376,14.94-14.437c4.968-3.169,9.612-4.536,14.472-4.248l0,0l3.384-5.221l0,0
		c-2.556-0.937-4.356-2.592-5.544-4.968c-1.296-2.521-2.556-5.58-1.548-9.612c0.936-4.067,3.096-9.468,7.596-14.399
		c4.464-5.147,13.428-11.809,18.972-15.552c5.436-3.744,9.684-5.616,13.428-6.589c3.636-1.115,5.508-1.655,8.532,0.324
		c2.988,2.017,5.904,5.688,9.145,11.412l0,0l7.309,0.359l0,0c1.225-2.845,3.023-5.147,5.4-7.309
		c2.304-2.124,3.744-3.636,8.748-5.363c5.039-1.729,13.606-2.7,20.986-5.292c7.271-2.809,16.2-6.517,22.32-11.124
		c5.977-4.645,10.332-9.899,13.607-16.597c3.275-6.912,5.58-15.3,5.651-24.19c-0.107-9.072-2.124-18.433-6.048-29.053l0,0
		l102.023-55.296l0,0c3.349-2.231,6.841-4.392,10.765-6.624c3.853-2.304,7.956-4.535,12.456-6.84l0,0
		c0.575,0.72,1.512,0.9,2.952,0.396c1.403-0.576,3.06-1.584,5.256-3.42l0,0c0.504,2.556,1.62,3.852,3.348,4.283
		c1.729,0.217,5.58-0.899,6.841-2.231c1.188-1.404,1.115-3.132,0.071-5.616l0,0c2.196-1.044,3.563-2.124,4.104-3.24
		c0.469-1.188,0.107-2.268-1.08-3.527l0,0c2.664,0.071,4.104-0.828,4.319-2.845c0.036-2.159-1.367-7.775-3.096-9.216
		c-1.656-1.403-3.888-1.044-6.695,1.08l0,0c-0.793-1.729-1.584-2.736-2.916-3.023c-1.297-0.36-2.809,0.144-4.681,1.224l0,0
		c-0.792-2.232-1.8-3.78-3.313-4.248c-1.548-0.468-4.176-0.108-5.508,0.936c-1.439,0.792-2.305,2.845-2.448,4.213
		c-0.145,1.367,0.324,2.556,1.549,3.852l0,0c-2.017,0.288-3.492,0.864-4.572,1.872c-1.116,0.972-1.584,2.231-1.691,3.924l0,0
		c0.181-0.684-2.521,0.18-8.101,2.592c-5.76,2.376-14.076,6.192-25.632,11.593l0,0l-97.452,44.567l0,0
		c-1.438-4.536-4.644-9.216-9.468-14.04c-5.004-4.968-12.24-11.735-19.621-15.048c-7.523-3.312-16.596-5.004-24.443-4.644
		c-7.884,0.18-14.94,2.628-22.284,6.228c-7.488,3.672-16.56,11.556-21.96,15.48c-5.472,3.743-6.624,5.796-10.404,7.128
		c-3.852,1.188-7.668,1.367-12.024,0.396l0,0l-4.032,6.156l0,0c3.132,2.52,4.824,5.328,4.932,8.424c0,3.096-0.612,6.48-4.356,10.008
		c-3.924,3.349-11.34,7.704-18.216,10.296c-6.876,2.593-15.66,4.933-22.464,5.076c-6.912-0.036-14.4-1.728-18.432-4.932
		C112.19,110.205,110.39,105.561,110.678,99.225L110.678,99.225z"/>
	<path id="path11" fill="#FFFDFE" stroke="#000000" stroke-width="0.036" stroke-miterlimit="10" d="M395.727,39.645l-5.508-11.053
		l0,0c-0.757-0.216-1.261-0.323-1.368-0.72c-0.145-0.396-0.035-0.864,0.469-1.404l0,0c-0.217-0.863-0.685-1.439-1.261-1.584
		c-0.647-0.216-1.477,0.612-2.483,0.54c-1.08-0.144-2.771-0.396-3.708-1.296c-1.116-1.044-2.196-2.556-2.124-4.68
		c0.036-2.232,1.26-6.228,2.556-8.1c1.226-1.872,2.952-2.809,5.04-2.952c2.053-0.181,5.076,0.324,6.984,1.655
		c1.836,1.188,3.563,3.456,3.779,5.437c0.036,1.908-2.844,4.86-3.239,6.084c-0.469,1.224-0.252,1.548,0.647,1.116l0,0
		c0.323,0.036,0.611,0.216,0.721,0.684c0.106,0.396,0.035,0.972-0.072,1.729l0,0l5.364,10.836l0,0
		C399.614,37.161,397.67,38.385,395.727,39.645L395.727,39.645z"/>
	<path id="path13" fill="#FFFDFE" stroke="#000000" stroke-width="0.036" stroke-miterlimit="10" d="M412.646,30.825l-6.192-12.78
		l0,0c0.324-0.863,0.252-1.476-0.216-1.836c-0.469-0.359-1.404-0.54-2.664-0.396l0,0c0.324-1.765,0.18-3.672-0.433-5.725
		c-0.756-2.195-3.023-5.256-3.313-6.804c-0.288-1.584,0.899-2.16,1.765-2.556c0.792-0.576,2.159-1.152,3.132-0.216
		c0.792,0.936,0.864,3.852,2.16,5.831c1.225,1.908,3.023,3.528,5.399,5.257l0,0c-0.433,0.504-0.611,1.115-0.54,1.548
		c0,0.432,0.324,0.828,0.828,1.188l0,0l6.372,13.177l-5.4,3.275L412.646,30.825L412.646,30.825z"/>
	<path id="path15" fill="#FFFDFE" stroke="#000000" stroke-width="0.036" stroke-miterlimit="10" d="M412.574,51.777l6.156,12.815
		l0,0c0.827,0.252,1.26,0.685,1.296,1.297c0.036,0.54-0.54,1.367-1.332,2.34l0,0c1.548,0.863,2.952,2.124,4.212,3.924
		c1.296,1.8,2.124,5.544,3.313,6.804c1.008,1.08,2.124,0.54,3.061,0.181c0.863-0.469,2.268-1.009,2.124-2.305
		c-0.288-1.296-2.521-3.24-3.204-5.292c-0.721-2.196-0.937-4.607-0.792-7.523l0,0c-0.756-0.036-1.225-0.217-1.548-0.54
		c-0.324-0.324-0.504-0.828-0.396-1.368l0,0l-6.407-13.212l-5.903,2.231L412.574,51.777L412.574,51.777z"/>
	<path id="path17" fill="#FFFDFE" stroke="#000000" stroke-width="0.036" stroke-miterlimit="10" d="M425.75,43.245l5.292,11.16l0,0
		c-0.396,0.684-0.54,1.26-0.288,1.584c0.181,0.36,0.648,0.468,1.404,0.468l0,0c0.504,0.756,0.647,1.368,0.432,1.98
		c-0.396,0.576-1.367,0.647-1.942,1.584c-0.686,0.863-1.44,2.304-1.297,3.744c0,1.403,0.685,3.203,2.341,4.571
		c1.69,1.188,5.58,2.845,7.92,3.024c2.231,0.072,3.996-0.685,5.436-2.124c1.368-1.477,2.845-4.428,3.062-6.516
		c0.106-2.232-0.433-5.04-1.908-6.337c-1.477-1.224-5.688-0.936-6.804-1.224c-1.261-0.36-1.404-0.9-0.434-1.224l0,0
		c0.146-0.36,0.108-0.685-0.106-0.973c-0.288-0.288-0.757-0.756-1.404-1.008l0,0l-5.147-10.943l0,0
		C430.143,41.733,427.946,42.489,425.75,43.245L425.75,43.245z"/>
</g>
</svg>
